<svg xmlns="http://www.w3.org/2000/svg" viewBox="0 0 1600 900" preserveAspectRatio="xMidYMid slice">
  <defs>
    <linearGradient id="sky" x1="0" y1="0" x2="0" y2="1">
      <stop offset="0" stop-color="#03070d" stop-opacity="1"/>
      <stop offset="0.52" stop-color="#06101e" stop-opacity="1"/>
      <stop offset="0.63" stop-color="#0a1c30" stop-opacity="1"/>
      <stop offset="1" stop-color="#04080f" stop-opacity="1"/>
    </linearGradient>
    <radialGradient id="glow" cx="0.5" cy="0.5" r="0.5">
      <stop offset="0" stop-color="#2adbe9" stop-opacity="0.16"/>
      <stop offset="0.35" stop-color="#2a8ee9" stop-opacity="0.08"/>
      <stop offset="1" stop-color="#2a8ee9" stop-opacity="0"/>
    </radialGradient>
  </defs>

  <rect width="1600" height="900" fill="url(#sky)"/>
  <ellipse cx="800" cy="612" rx="980" ry="320" fill="url(#glow)"/>

  <g stroke="#27e6ef" fill="none" opacity="0.06">
    <line x1="0" y1="612" x2="1600" y2="612"/>
    <line x1="0" y1="622" x2="1600" y2="622"/>
    <line x1="0" y1="640" x2="1600" y2="640"/>
    <line x1="0" y1="668" x2="1600" y2="668"/>
    <line x1="0" y1="706" x2="1600" y2="706"/>
    <line x1="0" y1="756" x2="1600" y2="756"/>
    <line x1="0" y1="822" x2="1600" y2="822"/>
    <line x1="0" y1="900" x2="1600" y2="900"/>
    <line x1="70" y1="612" x2="0" y2="900"/>
    <line x1="180" y1="612" x2="80" y2="900"/>
    <line x1="290" y1="612" x2="240" y2="900"/>
    <line x1="400" y1="612" x2="400" y2="900"/>
    <line x1="510" y1="612" x2="560" y2="900"/>
    <line x1="620" y1="612" x2="720" y2="900"/>
    <line x1="730" y1="612" x2="880" y2="900"/>
    <line x1="870" y1="612" x2="1040" y2="900"/>
    <line x1="980" y1="612" x2="1200" y2="900"/>
    <line x1="1090" y1="612" x2="1360" y2="900"/>
    <line x1="1200" y1="612" x2="1520" y2="900"/>
    <line x1="1310" y1="612" x2="1600" y2="900"/>
  </g>

  <g fill="#0b2238" opacity="0.9">
    <rect x="60" y="512" width="120" height="88"/>
    <rect x="96" y="478" width="48" height="122"/>
    <rect x="330" y="430" width="130" height="170"/>
    <rect x="380" y="480" width="80" height="120"/>
    <rect x="560" y="520" width="104" height="80"/>
    <rect x="890" y="470" width="150" height="130"/>
    <rect x="940" y="500" width="100" height="100"/>
    <rect x="1200" y="450" width="170" height="150"/>
    <rect x="1240" y="500" width="90" height="100"/>
    <rect x="1400" y="540" width="110" height="60"/>
    <rect x="1450" y="510" width="48" height="90"/>
  </g>
  <g stroke="#27e6ef" opacity="0.5" fill="none">
    <path d="M96 478 V454 M96 454 H100 M380 430 V404 M380 404 H386 M1240 500 V472 M1240 472 H1254"/>
    <circle cx="100" cy="454" r="2" fill="#27e6ef" stroke="none" opacity="0.8"/>
    <circle cx="386" cy="404" r="2" fill="#27e6ef" stroke="none" opacity="0.8"/>
    <circle cx="1254" cy="472" r="2" fill="#27e6ef" stroke="none" opacity="0.8"/>
  </g>

  <g stroke="#3d8bff" fill="none" opacity="0.12">
    <polyline points="0,36 150,36 150,140 330,140"/>
    <polyline points="1270,0 1270,120 1420,120 1420,260 1600,260"/>
    <polyline points="0,180 90,180 90,260"/>
    <polyline points="1380,0 1380,90 1520,90"/>
  </g>
  <g fill="#3d8bff" opacity="0.22">
    <circle cx="150" cy="140" r="3"/>
    <circle cx="330" cy="140" r="3"/>
    <circle cx="1270" cy="120" r="3"/>
    <circle cx="1420" cy="260" r="3"/>
    <circle cx="90" cy="260" r="3"/>
    <circle cx="1520" cy="90" r="3"/>
  </g>

  <g fill="#9fc7ff" opacity="0.10">
    <circle cx="260" cy="150" r="1.5"/>
    <circle cx="620" cy="90" r="1.5"/>
    <circle cx="760" cy="210" r="1.2"/>
    <circle cx="1030" cy="140" r="1.5"/>
    <circle cx="1150" cy="240" r="1.2"/>
    <circle cx="1480" cy="400" r="1.5"/>
    <circle cx="340" cy="330" r="1.2"/>
    <circle cx="70" cy="420" r="1.5"/>
  </g>
</svg>